<mxfile host="app.diagrams.net" modified="2021-09-21T01:14:57.531Z" agent="5.0 (Windows NT 10.0; Win64; x64) AppleWebKit/537.36 (KHTML, like Gecko) Chrome/92.0.4515.107 Safari/537.36" etag="XbQCCjJcG0c98mgJxajS" version="14.9.3" type="github">
  <diagram id="7rJI9f9Walht-zCr_mUl" name="Page-1">
    <mxGraphModel dx="877" dy="532" grid="1" gridSize="10" guides="1" tooltips="1" connect="1" arrows="1" fold="1" page="1" pageScale="1" pageWidth="1200" pageHeight="1920" math="0" shadow="0">
      <root>
        <mxCell id="0" />
        <mxCell id="1" parent="0" />
        <mxCell id="a2dKBl-C2z5xWPWFsDkA-2" value="" style="ellipse;whiteSpace=wrap;html=1;aspect=fixed;fillColor=#d5e8d4;strokeColor=#82b366;" vertex="1" parent="1">
          <mxGeometry x="330" y="90" width="40" height="40" as="geometry" />
        </mxCell>
        <mxCell id="a2dKBl-C2z5xWPWFsDkA-3" style="edgeStyle=none;rounded=0;jumpStyle=none;orthogonalLoop=1;jettySize=auto;html=1;entryX=1;entryY=1;entryDx=0;entryDy=0;endArrow=none;endFill=0;strokeWidth=1;startArrow=classic;startFill=1;exitX=0;exitY=0;exitDx=0;exitDy=0;" edge="1" parent="1" source="a2dKBl-C2z5xWPWFsDkA-4" target="a2dKBl-C2z5xWPWFsDkA-2">
          <mxGeometry x="90" y="110" as="geometry">
            <mxPoint x="400" y="200" as="sourcePoint" />
          </mxGeometry>
        </mxCell>
        <mxCell id="a2dKBl-C2z5xWPWFsDkA-4" value="" style="ellipse;whiteSpace=wrap;html=1;aspect=fixed;fillColor=#FFFFFF;" vertex="1" parent="1">
          <mxGeometry x="392" y="193" width="40" height="40" as="geometry" />
        </mxCell>
        <mxCell id="a2dKBl-C2z5xWPWFsDkA-33" value="" style="ellipse;whiteSpace=wrap;html=1;aspect=fixed;fillColor=#FFFFFF;" vertex="1" parent="1">
          <mxGeometry x="330" y="193" width="40" height="40" as="geometry" />
        </mxCell>
        <mxCell id="a2dKBl-C2z5xWPWFsDkA-34" value="" style="ellipse;whiteSpace=wrap;html=1;aspect=fixed;fillColor=#FFFFFF;" vertex="1" parent="1">
          <mxGeometry x="260" y="193" width="40" height="40" as="geometry" />
        </mxCell>
        <mxCell id="a2dKBl-C2z5xWPWFsDkA-35" value="&lt;font style=&quot;font-size: 24px&quot; face=&quot;Lucida Console&quot;&gt;A&lt;/font&gt;" style="ellipse;whiteSpace=wrap;html=1;aspect=fixed;fillColor=#d5e8d4;strokeColor=#82b366;" vertex="1" parent="1">
          <mxGeometry x="502" y="870" width="40" height="40" as="geometry" />
        </mxCell>
        <mxCell id="a2dKBl-C2z5xWPWFsDkA-36" style="edgeStyle=none;rounded=0;jumpStyle=none;orthogonalLoop=1;jettySize=auto;html=1;exitX=0.5;exitY=0;exitDx=0;exitDy=0;entryX=1;entryY=1;entryDx=0;entryDy=0;endArrow=none;endFill=0;strokeColor=#99CCFF;strokeWidth=3;" edge="1" parent="1" source="a2dKBl-C2z5xWPWFsDkA-37" target="a2dKBl-C2z5xWPWFsDkA-35">
          <mxGeometry x="310" y="870" as="geometry" />
        </mxCell>
        <mxCell id="a2dKBl-C2z5xWPWFsDkA-37" value="&lt;font style=&quot;font-size: 24px&quot; face=&quot;Lucida Console&quot;&gt;C&lt;/font&gt;" style="ellipse;whiteSpace=wrap;html=1;aspect=fixed;fillColor=#d5e8d4;strokeColor=#82b366;" vertex="1" parent="1">
          <mxGeometry x="612" y="953" width="40" height="40" as="geometry" />
        </mxCell>
        <mxCell id="a2dKBl-C2z5xWPWFsDkA-38" style="edgeStyle=none;rounded=0;jumpStyle=none;orthogonalLoop=1;jettySize=auto;html=1;exitX=0.5;exitY=0;exitDx=0;exitDy=0;entryX=0;entryY=1;entryDx=0;entryDy=0;endArrow=none;endFill=0;strokeColor=#99CCFF;strokeWidth=3;" edge="1" parent="1" source="a2dKBl-C2z5xWPWFsDkA-39" target="a2dKBl-C2z5xWPWFsDkA-35">
          <mxGeometry x="310" y="870" as="geometry" />
        </mxCell>
        <mxCell id="a2dKBl-C2z5xWPWFsDkA-39" value="&lt;font style=&quot;font-size: 24px&quot; face=&quot;Lucida Console&quot;&gt;B&lt;/font&gt;" style="ellipse;whiteSpace=wrap;html=1;aspect=fixed;fillColor=#d5e8d4;strokeColor=#82b366;" vertex="1" parent="1">
          <mxGeometry x="392" y="953" width="40" height="40" as="geometry" />
        </mxCell>
        <mxCell id="a2dKBl-C2z5xWPWFsDkA-40" style="edgeStyle=none;rounded=0;jumpStyle=none;orthogonalLoop=1;jettySize=auto;html=1;exitX=0.5;exitY=0;exitDx=0;exitDy=0;entryX=0;entryY=1;entryDx=0;entryDy=0;endArrow=none;endFill=0;strokeColor=#99CCFF;strokeWidth=3;" edge="1" parent="1" source="a2dKBl-C2z5xWPWFsDkA-41" target="a2dKBl-C2z5xWPWFsDkA-39">
          <mxGeometry x="310" y="870" as="geometry" />
        </mxCell>
        <mxCell id="a2dKBl-C2z5xWPWFsDkA-41" value="&lt;font style=&quot;font-size: 24px&quot; face=&quot;Lucida Console&quot;&gt;D&lt;/font&gt;" style="ellipse;whiteSpace=wrap;html=1;aspect=fixed;fillColor=#d5e8d4;strokeColor=#82b366;" vertex="1" parent="1">
          <mxGeometry x="337" y="1023" width="40" height="40" as="geometry" />
        </mxCell>
        <mxCell id="a2dKBl-C2z5xWPWFsDkA-42" style="rounded=0;orthogonalLoop=1;jettySize=auto;html=1;exitX=0.5;exitY=0;exitDx=0;exitDy=0;entryX=0;entryY=1;entryDx=0;entryDy=0;endArrow=none;endFill=0;jumpStyle=none;fillColor=#dae8fc;strokeWidth=3;strokeColor=#99CCFF;" edge="1" parent="1" source="a2dKBl-C2z5xWPWFsDkA-54" target="a2dKBl-C2z5xWPWFsDkA-41">
          <mxGeometry x="310" y="1023" as="geometry" />
        </mxCell>
        <mxCell id="a2dKBl-C2z5xWPWFsDkA-45" style="edgeStyle=none;rounded=0;jumpStyle=none;orthogonalLoop=1;jettySize=auto;html=1;exitX=0.5;exitY=0;exitDx=0;exitDy=0;entryX=1;entryY=1;entryDx=0;entryDy=0;endArrow=none;endFill=0;strokeColor=#99CCFF;strokeWidth=3;" edge="1" parent="1" source="a2dKBl-C2z5xWPWFsDkA-46" target="a2dKBl-C2z5xWPWFsDkA-37">
          <mxGeometry x="310" y="870" as="geometry" />
        </mxCell>
        <mxCell id="a2dKBl-C2z5xWPWFsDkA-46" value="&lt;font style=&quot;font-size: 24px&quot; face=&quot;Lucida Console&quot;&gt;G&lt;/font&gt;" style="ellipse;whiteSpace=wrap;html=1;aspect=fixed;fillColor=#d5e8d4;strokeColor=#82b366;" vertex="1" parent="1">
          <mxGeometry x="667" y="1023" width="40" height="40" as="geometry" />
        </mxCell>
        <mxCell id="a2dKBl-C2z5xWPWFsDkA-47" style="edgeStyle=none;rounded=0;jumpStyle=none;orthogonalLoop=1;jettySize=auto;html=1;exitX=0.5;exitY=0;exitDx=0;exitDy=0;entryX=0;entryY=1;entryDx=0;entryDy=0;endArrow=none;endFill=0;strokeColor=#99CCFF;strokeWidth=3;" edge="1" parent="1" source="a2dKBl-C2z5xWPWFsDkA-48" target="a2dKBl-C2z5xWPWFsDkA-37">
          <mxGeometry x="310" y="870" as="geometry" />
        </mxCell>
        <mxCell id="a2dKBl-C2z5xWPWFsDkA-48" value="&lt;font style=&quot;font-size: 24px&quot; face=&quot;Lucida Console&quot;&gt;F&lt;/font&gt;" style="ellipse;whiteSpace=wrap;html=1;aspect=fixed;fillColor=#d5e8d4;strokeColor=#82b366;" vertex="1" parent="1">
          <mxGeometry x="557" y="1023" width="40" height="40" as="geometry" />
        </mxCell>
        <mxCell id="a2dKBl-C2z5xWPWFsDkA-54" value="&lt;font style=&quot;font-size: 24px&quot; face=&quot;Lucida Console&quot;&gt;H&lt;/font&gt;" style="ellipse;whiteSpace=wrap;html=1;aspect=fixed;fillColor=#d5e8d4;strokeColor=#82b366;" vertex="1" parent="1">
          <mxGeometry x="310" y="1083" width="40" height="40" as="geometry" />
        </mxCell>
        <mxCell id="a2dKBl-C2z5xWPWFsDkA-81" value="&lt;font style=&quot;font-size: 18px&quot;&gt;B 节点的左右子树的高度差已经超过了 1 。&lt;/font&gt;" style="text;html=1;strokeColor=none;fillColor=none;align=center;verticalAlign=middle;whiteSpace=wrap;rounded=0;" vertex="1" parent="1">
          <mxGeometry x="350" y="1120" width="410" height="50" as="geometry" />
        </mxCell>
        <mxCell id="a2dKBl-C2z5xWPWFsDkA-83" value="&lt;font style=&quot;font-size: 12px&quot;&gt;Height 0&lt;/font&gt;" style="text;html=1;strokeColor=none;fillColor=none;align=center;verticalAlign=middle;whiteSpace=wrap;rounded=0;" vertex="1" parent="1">
          <mxGeometry x="240" y="1083" width="70" height="37" as="geometry" />
        </mxCell>
        <mxCell id="a2dKBl-C2z5xWPWFsDkA-84" value="&lt;font style=&quot;font-size: 12px&quot;&gt;Height 0&lt;/font&gt;" style="text;html=1;strokeColor=none;fillColor=none;align=center;verticalAlign=middle;whiteSpace=wrap;rounded=0;" vertex="1" parent="1">
          <mxGeometry x="707" y="1023" width="70" height="37" as="geometry" />
        </mxCell>
        <mxCell id="a2dKBl-C2z5xWPWFsDkA-85" value="&lt;font style=&quot;font-size: 12px ; font-weight: normal&quot;&gt;Height 1&lt;/font&gt;" style="text;html=1;strokeColor=none;fillColor=none;align=center;verticalAlign=middle;whiteSpace=wrap;rounded=0;fontStyle=1" vertex="1" parent="1">
          <mxGeometry x="660" y="953" width="70" height="37" as="geometry" />
        </mxCell>
        <mxCell id="a2dKBl-C2z5xWPWFsDkA-86" value="&lt;font style=&quot;font-size: 12px&quot;&gt;Height 1&lt;/font&gt;" style="text;html=1;strokeColor=none;fillColor=none;align=center;verticalAlign=middle;whiteSpace=wrap;rounded=0;" vertex="1" parent="1">
          <mxGeometry x="260" y="1023" width="70" height="37" as="geometry" />
        </mxCell>
        <mxCell id="a2dKBl-C2z5xWPWFsDkA-87" value="&lt;font style=&quot;font-size: 12px&quot;&gt;Height 2&lt;/font&gt;" style="text;html=1;strokeColor=none;fillColor=none;align=center;verticalAlign=middle;whiteSpace=wrap;rounded=0;" vertex="1" parent="1">
          <mxGeometry x="320" y="953" width="70" height="37" as="geometry" />
        </mxCell>
        <mxCell id="a2dKBl-C2z5xWPWFsDkA-88" value="&lt;font style=&quot;font-size: 12px&quot;&gt;Height 3&lt;/font&gt;" style="text;html=1;strokeColor=none;fillColor=none;align=center;verticalAlign=middle;whiteSpace=wrap;rounded=0;" vertex="1" parent="1">
          <mxGeometry x="432" y="871.5" width="70" height="37" as="geometry" />
        </mxCell>
        <mxCell id="a2dKBl-C2z5xWPWFsDkA-89" value="&lt;font style=&quot;font-size: 12px&quot;&gt;Height 0&lt;/font&gt;" style="text;html=1;strokeColor=none;fillColor=none;align=center;verticalAlign=middle;whiteSpace=wrap;rounded=0;" vertex="1" parent="1">
          <mxGeometry x="487" y="1024.5" width="70" height="37" as="geometry" />
        </mxCell>
        <mxCell id="a2dKBl-C2z5xWPWFsDkA-90" value="&lt;font style=&quot;font-size: 24px&quot; face=&quot;Lucida Console&quot;&gt;A&lt;/font&gt;" style="ellipse;whiteSpace=wrap;html=1;aspect=fixed;fillColor=#d5e8d4;strokeColor=#82b366;" vertex="1" parent="1">
          <mxGeometry x="510" y="1250" width="40" height="40" as="geometry" />
        </mxCell>
        <mxCell id="a2dKBl-C2z5xWPWFsDkA-91" style="edgeStyle=none;rounded=0;jumpStyle=none;orthogonalLoop=1;jettySize=auto;html=1;exitX=0.5;exitY=0;exitDx=0;exitDy=0;entryX=1;entryY=1;entryDx=0;entryDy=0;endArrow=none;endFill=0;strokeColor=#99CCFF;strokeWidth=3;" edge="1" parent="1" source="a2dKBl-C2z5xWPWFsDkA-92" target="a2dKBl-C2z5xWPWFsDkA-90">
          <mxGeometry x="318" y="1250" as="geometry" />
        </mxCell>
        <mxCell id="a2dKBl-C2z5xWPWFsDkA-92" value="&lt;font style=&quot;font-size: 24px&quot; face=&quot;Lucida Console&quot;&gt;C&lt;/font&gt;" style="ellipse;whiteSpace=wrap;html=1;aspect=fixed;fillColor=#d5e8d4;strokeColor=#82b366;" vertex="1" parent="1">
          <mxGeometry x="620" y="1333" width="40" height="40" as="geometry" />
        </mxCell>
        <mxCell id="a2dKBl-C2z5xWPWFsDkA-93" style="edgeStyle=none;rounded=0;jumpStyle=none;orthogonalLoop=1;jettySize=auto;html=1;exitX=0.5;exitY=0;exitDx=0;exitDy=0;entryX=0;entryY=1;entryDx=0;entryDy=0;endArrow=none;endFill=0;strokeColor=#99CCFF;strokeWidth=3;" edge="1" parent="1" source="a2dKBl-C2z5xWPWFsDkA-94" target="a2dKBl-C2z5xWPWFsDkA-90">
          <mxGeometry x="318" y="1250" as="geometry" />
        </mxCell>
        <mxCell id="a2dKBl-C2z5xWPWFsDkA-94" value="&lt;font style=&quot;font-size: 24px&quot; face=&quot;Lucida Console&quot;&gt;B&lt;/font&gt;" style="ellipse;whiteSpace=wrap;html=1;aspect=fixed;fillColor=#d5e8d4;strokeColor=#82b366;" vertex="1" parent="1">
          <mxGeometry x="400" y="1333" width="40" height="40" as="geometry" />
        </mxCell>
        <mxCell id="a2dKBl-C2z5xWPWFsDkA-95" style="edgeStyle=none;rounded=0;jumpStyle=none;orthogonalLoop=1;jettySize=auto;html=1;exitX=0.5;exitY=0;exitDx=0;exitDy=0;entryX=0;entryY=1;entryDx=0;entryDy=0;endArrow=none;endFill=0;strokeColor=#99CCFF;strokeWidth=3;" edge="1" parent="1" source="a2dKBl-C2z5xWPWFsDkA-96" target="a2dKBl-C2z5xWPWFsDkA-94">
          <mxGeometry x="318" y="1250" as="geometry" />
        </mxCell>
        <mxCell id="a2dKBl-C2z5xWPWFsDkA-96" value="&lt;font style=&quot;font-size: 24px&quot; face=&quot;Lucida Console&quot;&gt;D&lt;/font&gt;" style="ellipse;whiteSpace=wrap;html=1;aspect=fixed;fillColor=#d5e8d4;strokeColor=#82b366;" vertex="1" parent="1">
          <mxGeometry x="345" y="1403" width="40" height="40" as="geometry" />
        </mxCell>
        <mxCell id="a2dKBl-C2z5xWPWFsDkA-97" style="rounded=0;orthogonalLoop=1;jettySize=auto;html=1;exitX=0.5;exitY=0;exitDx=0;exitDy=0;entryX=0;entryY=1;entryDx=0;entryDy=0;endArrow=none;endFill=0;jumpStyle=none;fillColor=#dae8fc;strokeWidth=3;strokeColor=#99CCFF;" edge="1" parent="1" source="a2dKBl-C2z5xWPWFsDkA-109" target="a2dKBl-C2z5xWPWFsDkA-96">
          <mxGeometry x="318" y="1403" as="geometry" />
        </mxCell>
        <mxCell id="a2dKBl-C2z5xWPWFsDkA-98" style="edgeStyle=none;rounded=0;jumpStyle=none;orthogonalLoop=1;jettySize=auto;html=1;exitX=0.5;exitY=0;exitDx=0;exitDy=0;entryX=1;entryY=1;entryDx=0;entryDy=0;endArrow=none;endFill=0;strokeColor=#99CCFF;strokeWidth=3;" edge="1" parent="1" source="a2dKBl-C2z5xWPWFsDkA-99" target="a2dKBl-C2z5xWPWFsDkA-94">
          <mxGeometry x="318" y="1250" as="geometry" />
        </mxCell>
        <mxCell id="a2dKBl-C2z5xWPWFsDkA-99" value="&lt;font style=&quot;font-size: 24px&quot; face=&quot;Lucida Console&quot;&gt;E&lt;/font&gt;" style="ellipse;whiteSpace=wrap;html=1;aspect=fixed;fillColor=#d5e8d4;strokeColor=#82b366;" vertex="1" parent="1">
          <mxGeometry x="455" y="1403" width="40" height="40" as="geometry" />
        </mxCell>
        <mxCell id="a2dKBl-C2z5xWPWFsDkA-109" value="&lt;font style=&quot;font-size: 24px&quot; face=&quot;Lucida Console&quot;&gt;H&lt;/font&gt;" style="ellipse;whiteSpace=wrap;html=1;aspect=fixed;fillColor=#d5e8d4;strokeColor=#82b366;" vertex="1" parent="1">
          <mxGeometry x="318" y="1463" width="40" height="40" as="geometry" />
        </mxCell>
        <mxCell id="a2dKBl-C2z5xWPWFsDkA-136" value="&lt;font style=&quot;font-size: 18px&quot;&gt;虽然每个节点的左右子树都是平衡二叉树，但是高度差已经超过了 1 。&lt;/font&gt;" style="text;html=1;strokeColor=none;fillColor=none;align=center;verticalAlign=middle;whiteSpace=wrap;rounded=0;" vertex="1" parent="1">
          <mxGeometry x="310" y="1520" width="410" height="50" as="geometry" />
        </mxCell>
        <mxCell id="a2dKBl-C2z5xWPWFsDkA-137" value="&lt;font style=&quot;font-size: 12px&quot;&gt;Height 0&lt;/font&gt;" style="text;html=1;strokeColor=none;fillColor=none;align=center;verticalAlign=middle;whiteSpace=wrap;rounded=0;" vertex="1" parent="1">
          <mxGeometry x="245" y="1466" width="70" height="37" as="geometry" />
        </mxCell>
        <mxCell id="a2dKBl-C2z5xWPWFsDkA-138" value="&lt;font style=&quot;font-size: 12px&quot;&gt;Height 1&lt;/font&gt;" style="text;html=1;strokeColor=none;fillColor=none;align=center;verticalAlign=middle;whiteSpace=wrap;rounded=0;" vertex="1" parent="1">
          <mxGeometry x="275" y="1406" width="70" height="37" as="geometry" />
        </mxCell>
        <mxCell id="a2dKBl-C2z5xWPWFsDkA-139" value="&lt;font style=&quot;font-size: 12px&quot;&gt;Height 0&lt;/font&gt;" style="text;html=1;strokeColor=none;fillColor=none;align=center;verticalAlign=middle;whiteSpace=wrap;rounded=0;" vertex="1" parent="1">
          <mxGeometry x="495" y="1406" width="70" height="37" as="geometry" />
        </mxCell>
        <mxCell id="a2dKBl-C2z5xWPWFsDkA-140" value="&lt;font style=&quot;font-size: 12px&quot;&gt;Height 0&lt;/font&gt;" style="text;html=1;strokeColor=none;fillColor=none;align=center;verticalAlign=middle;whiteSpace=wrap;rounded=0;" vertex="1" parent="1">
          <mxGeometry x="660" y="1333" width="70" height="37" as="geometry" />
        </mxCell>
        <mxCell id="a2dKBl-C2z5xWPWFsDkA-141" value="&lt;font style=&quot;font-size: 12px&quot;&gt;Height 2&lt;/font&gt;" style="text;html=1;strokeColor=none;fillColor=none;align=center;verticalAlign=middle;whiteSpace=wrap;rounded=0;" vertex="1" parent="1">
          <mxGeometry x="330" y="1336" width="70" height="37" as="geometry" />
        </mxCell>
        <mxCell id="a2dKBl-C2z5xWPWFsDkA-142" value="&lt;font style=&quot;font-size: 12px&quot;&gt;Height 3&lt;/font&gt;" style="text;html=1;strokeColor=none;fillColor=none;align=center;verticalAlign=middle;whiteSpace=wrap;rounded=0;" vertex="1" parent="1">
          <mxGeometry x="440" y="1250" width="70" height="37" as="geometry" />
        </mxCell>
        <mxCell id="a2dKBl-C2z5xWPWFsDkA-143" value="&lt;font style=&quot;font-size: 24px&quot; face=&quot;Lucida Console&quot;&gt;A&lt;/font&gt;" style="ellipse;whiteSpace=wrap;html=1;aspect=fixed;fillColor=#d5e8d4;strokeColor=#82b366;" vertex="1" parent="1">
          <mxGeometry x="208" y="1690" width="40" height="40" as="geometry" />
        </mxCell>
        <mxCell id="a2dKBl-C2z5xWPWFsDkA-144" style="edgeStyle=none;rounded=0;jumpStyle=none;orthogonalLoop=1;jettySize=auto;html=1;exitX=0.5;exitY=0;exitDx=0;exitDy=0;entryX=1;entryY=1;entryDx=0;entryDy=0;endArrow=none;endFill=0;strokeColor=#99CCFF;strokeWidth=3;" edge="1" parent="1" source="a2dKBl-C2z5xWPWFsDkA-145" target="a2dKBl-C2z5xWPWFsDkA-143">
          <mxGeometry x="16" y="1690" as="geometry" />
        </mxCell>
        <mxCell id="a2dKBl-C2z5xWPWFsDkA-145" value="&lt;font style=&quot;font-size: 24px&quot; face=&quot;Lucida Console&quot;&gt;C&lt;/font&gt;" style="ellipse;whiteSpace=wrap;html=1;aspect=fixed;fillColor=#d5e8d4;strokeColor=#82b366;" vertex="1" parent="1">
          <mxGeometry x="297" y="1610" width="40" height="40" as="geometry" />
        </mxCell>
        <mxCell id="a2dKBl-C2z5xWPWFsDkA-146" style="edgeStyle=none;rounded=0;jumpStyle=none;orthogonalLoop=1;jettySize=auto;html=1;exitX=0.5;exitY=0;exitDx=0;exitDy=0;entryX=0;entryY=1;entryDx=0;entryDy=0;endArrow=none;endFill=0;strokeColor=#99CCFF;strokeWidth=3;" edge="1" parent="1" source="a2dKBl-C2z5xWPWFsDkA-147" target="a2dKBl-C2z5xWPWFsDkA-143">
          <mxGeometry x="16" y="1690" as="geometry" />
        </mxCell>
        <mxCell id="a2dKBl-C2z5xWPWFsDkA-147" value="&lt;font style=&quot;font-size: 24px&quot; face=&quot;Lucida Console&quot;&gt;B&lt;/font&gt;" style="ellipse;whiteSpace=wrap;html=1;aspect=fixed;fillColor=#d5e8d4;strokeColor=#82b366;" vertex="1" parent="1">
          <mxGeometry x="148" y="1773" width="40" height="40" as="geometry" />
        </mxCell>
      </root>
    </mxGraphModel>
  </diagram>
</mxfile>
